:version 1.10
:name ASF
:units
  mass 1
  length 1
  angle deg
:documentation
  ASF file generated by Kaydara
:root
  axis xyz
  order  tx ty tz rx ry rz
  position 0 0 0
  orientation 0 0 0
:bonedata
  begin
    id 1
    name LeftUpLegDummy
    direction 1 -2.30186e-007 -8.31532e-007
    length 2.93387
    axis 0 0 0 xyz
  end
  begin
    id 2
    name LeftUpLeg
    direction -1.82929e-007 -1 -1.48925e-009
    length 17.3336
    axis -3.48766 0.00143442 -0.000521554 xyz
    dof rx ry rz
  end
  begin
    id 3
    name LeftLeg
    direction -1.82929e-007 -1 -5.23717e-011
    length 14.9995
    axis 3.68178 -0.00654042 -0.000282425 xyz
    dof rx ry rz
  end
  begin
    id 4
    name LeftFoot
    direction 8.31532e-007 -4.54534e-011 1
    length 6.74421
    axis 1.87234e-006 4.66016e-005 -5.96866e-006 xyz
    dof rx ry rz
  end
  begin
    id 5
    name LeftToes
    direction 0.00818058 -0.00485161 0.999955
    length 3.85048
    axis 1.06247e-005 4.65869e-005 -5.96999e-006 xyz
    dof rx ry rz
  end
  begin
    id 6
    name SpineDummy
    direction -5.8607e-008 0.943407 -0.331637
    length 5.93572
    axis 0 0 0 xyz
  end
  begin
    id 7
    name Spine
    direction -1.04988e-007 0.999988 0.00495137
    length 10.1015
    axis -0.001389 0.000121417 6.61666e-006 xyz
    dof rx ry rz
  end
  begin
    id 8
    name Spine1
    direction 0 0 0
    length 0
    axis -0.001389 0.00012144 6.56766e-006 xyz
    dof rx ry rz
  end
  begin
    id 9
    name RightShoulderDummy
    direction -0.98348 0.17941 -0.0240696
    length 3.59882
    axis -0.001389 0.00012144 6.56766e-006 xyz
  end
  begin
    id 10
    name RightShoulder
    direction -0.978693 0.204882 0.0135597
    length 2.70001
    axis 0.215806 0.000203631 -0.00679732 xyz
    dof rx ry rz
  end
  begin
    id 11
    name RightArm
    direction -1 3.85509e-006 8.31394e-007
    length 10.2459
    axis -23.2009 -0.134239 -0.964098 xyz
    dof rx ry rz
  end
  begin
    id 12
    name RightForeArm
    direction -1 3.85569e-006 8.3129e-007
    length 8.16799
    axis -9.92322 0.0658061 0.17887 xyz
    dof rx ry rz
  end
  begin
    id 13
    name RightHand
    direction -0.992843 -0.0414604 0.112003
    length 5.28593
    axis -0.00960638 0.00330669 -0.185225 xyz
    dof rx ry rz
  end
  begin
    id 14
    name LeftShoulder1Dummy
    direction 0.983523 0.179172 -0.0240748
    length 3.59866
    axis -0.001389 0.00012144 6.56766e-006 xyz
  end
  begin
    id 15
    name LeftShoulder1
    direction 0.978627 0.205195 0.0135605
    length 2.70019
    axis -0.001389 0.00012144 6.57583e-006 xyz
    dof rx ry rz
  end
  begin
    id 16
    name LeftArm
    direction 1 3.51895e-006 -8.60188e-007
    length 10.2459
    axis -23.1894 0.134785 0.967513 xyz
    dof rx ry rz
  end
  begin
    id 17
    name LeftForeArm
    direction 1 3.51921e-006 -7.32029e-007
    length 8.16799
    axis -9.91835 -0.0656957 -0.177789 xyz
    dof rx ry rz
  end
  begin
    id 18
    name LeftHand
    direction 0.992938 -0.0411636 0.11126
    length 5.32135
    axis -0.00960237 -0.00340661 0.185177 xyz
    dof rx ry rz
  end
  begin
    id 19
    name HEadDummy
    direction 1.01974e-006 0.999861 -0.016675
    length 2.99946
    axis -0.001389 0.00012144 6.56766e-006 xyz
  end
  begin
    id 20
    name HEad
    direction -0.0222689 0.980941 0.193023
    length 5.12695
    axis -0.001389 0.00012144 6.56766e-006 xyz
    dof rx ry rz
  end
  begin
    id 21
    name RightUpLegDummy
    direction -1 2.30186e-007 8.31532e-007
    length 2.93387
    axis 0 0 0 xyz
  end
  begin
    id 22
    name RightUpLeg
    direction -1.82966e-007 -1 1.56832e-007
    length 17.3336
    axis -3.4909 -0.000906625 0.00028951 xyz
    dof rx ry rz
  end
  begin
    id 23
    name RightLeg
    direction -1.82786e-007 -1 -1.80317e-007
    length 14.9995
    axis 3.68513 0.0193739 -0.131021 xyz
    dof rx ry rz
  end
  begin
    id 24
    name RightFoot
    direction 8.31721e-007 -4.63324e-011 1
    length 6.74421
    axis 4.81691e-005 -0.120479 -0.188785 xyz
    dof rx ry rz
  end
  begin
    id 25
    name RightToes
    direction 0.00124746 -0.014064 0.9999
    length 3.85082
    axis 0.000481921 0.542163 -0.142575 xyz
    dof rx ry rz
  end
:hierarchy
  begin
    root LeftUpLegDummy SpineDummy RightUpLegDummy
    LeftUpLegDummy LeftUpLeg
    LeftUpLeg LeftLeg
    LeftLeg LeftFoot
    LeftFoot LeftToes
    SpineDummy Spine
    Spine Spine1
    Spine1 RightShoulderDummy LeftShoulder1Dummy HEadDummy
    RightShoulderDummy RightShoulder
    RightShoulder RightArm
    RightArm RightForeArm
    RightForeArm RightHand
    LeftShoulder1Dummy LeftShoulder1
    LeftShoulder1 LeftArm
    LeftArm LeftForeArm
    LeftForeArm LeftHand
    HEadDummy HEad
    RightUpLegDummy RightUpLeg
    RightUpLeg RightLeg
    RightLeg RightFoot
    RightFoot RightToes
  end

:SAMPLES-PER-SECOND 30
:FULLY-SPECIFIED
:DEGREES
164
root  4.76025 33.7246 -16.9384 1.97586 9.60582 6.04469
LeftUpLeg  -5.35982 9.5912 -9.193
LeftLeg  13.6557 2.37584 0.416097
LeftFoot  -5.14639 -0.00981758 -0.218464
LeftToes  -5.12423 8.556e-007 1.17171e-007
Spine  1.86339 -0.527054 -3.4302
Spine1  3.70831 -1.52516 -6.05223
RightShoulder  -0.0266829 6.25412 2.95942
RightArm  -34.1989 -21.0109 79.3301
RightForeArm  29.2478 26.946 5.13659
RightHand  1.02499 -12.9516 -8.66613
LeftShoulder1  0.0761245 -2.43528 -6.79958
LeftArm  -18.0236 -6.9082 -54.8791
LeftForeArm  141.016 -70.5951 -149.418
LeftHand  0.216735 3.52245 6.65662
HEad  -36.1827 32.4345 -13.3587
RightUpLeg  -14.8414 -15.7083 -12.1255
RightLeg  2.87126 -8.67737 0.125104
RightFoot  23.0392 0.798948 -3.54097
RightToes  -42.7943 -0.241182 -0.330357
165
root  4.7491 33.7182 -17.0759 2.19939 10.503 5.92884
LeftUpLeg  -5.87132 9.34077 -9.11721
LeftLeg  13.8587 1.64805 0.294192
LeftFoot  -5.10699 -0.00663881 -0.148873
LeftToes  -5.36363 8.556e-007 1.17171e-007
Spine  1.89849 -0.47548 -3.44432
Spine1  3.76847 -1.42782 -6.05003
RightShoulder  -0.0271611 6.21947 3.0668
RightArm  -34.0406 -20.7688 79.195
RightForeArm  29.0326 27.3662 5.2308
RightHand  1.02053 -13.025 -8.61829
LeftShoulder1  0.0812928 -2.46716 -6.85476
LeftArm  -16.666 -5.38843 -55.0003
LeftForeArm  94.5223 -79.7466 -99.8041
LeftHand  0.166979 4.2562 4.11463
HEad  -38.6227 31.3657 -14.5301
RightUpLeg  -15.7676 -15.8235 -12.1952
RightLeg  4.6346 -8.40124 -0.136193
RightFoot  21.942 0.708669 -3.2768
RightToes  -43.4212 -0.246374 -0.333621
166
root  4.72908 33.7149 -17.1917 2.32392 11.3993 5.76282
LeftUpLeg  -6.24183 9.10775 -8.95752
LeftLeg  14.0302 0.904958 0.16361
LeftFoot  -5.09871 -0.0034927 -0.0784542
LeftToes  -5.63648 8.556e-007 1.17171e-007
Spine  1.90434 -0.422249 -3.47908
Spine1  3.77251 -1.30659 -6.11626
RightShoulder  -0.0276363 6.38623 3.36172
RightArm  -33.9191 -20.7565 78.9985
RightForeArm  28.6499 27.6474 5.29437
RightHand  1.01928 -13.0001 -8.55393
LeftShoulder1  0.0851831 -2.66025 -6.92164
LeftArm  -15.7812 -4.77541 -55.6337
LeftForeArm  31.8699 -71.52 -32.0672
LeftHand  0.111141 4.53953 2.42984
HEad  -40.903 30.2206 -15.3925
RightUpLeg  -16.6176 -15.7419 -12.1954
RightLeg  6.5581 -7.52305 -0.373969
RightFoot  20.391 0.561512 -2.74376
RightToes  -43.6846 -0.248566 -0.334976
167
root  4.71068 33.7094 -17.2859 2.38466 12.275 5.61924
LeftUpLeg  -6.46323 8.68818 -8.81477
LeftLeg  14.095 0.374281 0.0671429
LeftFoot  -5.049 -0.00112572 -0.0255417
LeftToes  -6.02408 8.556e-007 1.17171e-007
Spine  1.93848 -0.368442 -3.49875
Spine1  3.83246 -1.16851 -6.16632
RightShoulder  -0.028 6.3241 3.48738
RightArm  -33.8096 -20.7175 79.0403
RightForeArm  28.3648 28.0238 5.37989
RightHand  1.01899 -13.0268 -8.53299
LeftShoulder1  0.0887432 -3.10957 -7.35653
LeftArm  -16.1187 -4.72741 -56.4752
LeftForeArm  21.1 -54.1094 -14.1395
LeftHand  0.0784089 4.33258 1.69995
HEad  -43.0461 28.9033 -16.2705
RightUpLeg  -17.2201 -14.7217 -12.3262
RightLeg  8.20202 -6.82573 -0.535568
RightFoot  18.7042 0.440348 -2.29568
RightToes  -43.2257 -0.24475 -0.332609
168
root  4.68242 33.7046 -17.3389 2.42439 12.9723 5.41807
LeftUpLeg  -6.67124 8.51123 -8.56711
LeftLeg  14.2708 -0.236379 -0.0458507
LeftFoot  -5.12385 0.00156434 0.0349531
LeftToes  -6.49621 8.556e-007 1.17171e-007
Spine  1.9446 -0.368188 -3.51809
Spine1  3.85381 -1.15627 -6.22525
RightShoulder  -0.0283105 6.21038 3.51726
RightArm  -33.6706 -20.7123 79.3071
RightForeArm  28.0185 28.4928 5.48729
RightHand  1.01032 -12.9101 -8.53773
LeftShoulder1  0.0925908 -3.61242 -8.01773
LeftArm  -18.4047 -5.28216 -57.1219
LeftForeArm  21.9299 -33.2377 -6.63117
LeftHand  0.0680528 3.84154 1.65608
HEad  -45.2836 27.7574 -17.14
RightUpLeg  -17.6122 -12.5488 -12.4334
RightLeg  9.45203 -6.17367 -0.620086
RightFoot  17.0627 0.342359 -1.90431
RightToes  -41.8313 -0.233275 -0.325231
169
root  4.67707 33.6177 -17.3218 2.40715 13.1813 5.03857
LeftUpLeg  -7.58505 8.24355 -8.20051
LeftLeg  16.2145 -0.210196 -0.0486208
LeftFoot  -6.26292 0.00354441 0.0647777
LeftToes  -6.7661 8.556e-007 1.17171e-007
Spine  2.17816 -0.841736 -3.73937
Spine1  4.29618 -2.55375 -6.02146
RightShoulder  -0.0285943 6.07739 3.38332
RightArm  -33.2227 -20.2757 79.887
RightForeArm  27.5197 29.4845 5.7176
RightHand  1.01021 -12.9226 -8.52806
LeftShoulder1  0.19107 -4.51976 -9.30641
LeftArm  -23.359 -3.27195 -55.9966
LeftForeArm  26.6884 -19.3043 -3.53434
LeftHand  0.136877 4.65184 2.99455
HEad  -47.4974 26.6322 -18.0674
RightUpLeg  -18.7349 -9.62432 -12.3423
RightLeg  12.1164 -4.6043 -0.680106
RightFoot  14.9354 0.218259 -1.28737
RightToes  -41.0882 -0.227234 -0.321187
170
root  4.66302 33.5658 -17.2944 2.18579 13.4163 4.74344
LeftUpLeg  -7.92665 7.74048 -7.88944
LeftLeg  17.4217 0.0743348 0.0161323
LeftFoot  -6.98089 0.00382171 0.0626469
LeftToes  -6.62099 8.556e-007 1.17171e-007
Spine  2.16657 -0.782254 -3.89854
Spine1  4.22825 -2.36227 -6.28278
RightShoulder  -0.0287816 5.83027 3.2041
RightArm  -32.3318 -20.8125 80.4479
RightForeArm  27.1899 30.5763 5.97651
RightHand  0.968898 -12.8576 -8.20888
LeftShoulder1  0.228198 -5.05074 -10.2107
LeftArm  -29.8136 0.606331 -55.1847
LeftForeArm  31.0781 -11.1637 -1.99
LeftHand  0.305973 6.72551 4.82881
HEad  -49.2141 25.6004 -18.6756
RightUpLeg  -19.2908 -6.34045 -12.4018
RightLeg  14.0256 -2.78403 -0.506803
RightFoot  13.3672 0.124711 -0.686624
RightToes  -40.5681 -0.225753 -0.319448
171
root  4.649 33.5644 -17.2375 1.87731 13.3475 4.59803
LeftUpLeg  -7.67498 7.5124 -7.68207
LeftLeg  17.6735 0.379268 0.0924291
LeftFoot  -7.16998 0.00235311 0.0375495
LeftToes  -6.61985 8.556e-007 1.17171e-007
Spine  1.98329 -0.368988 -3.97454
Spine1  3.85965 -1.22095 -6.77739
RightShoulder  -0.0288807 5.49666 2.98912
RightArm  -30.8387 -22.073 80.92
RightForeArm  27.0665 31.9822 6.31885
RightHand  0.913297 -12.764 -7.77786
LeftShoulder1  0.196506 -4.83239 -10.6403
LeftArm  -34.8098 5.95553 -54.5624
LeftForeArm  34.0622 -6.76091 -1.19563
LeftHand  0.45579 8.86061 5.50349
HEad  -50.5727 24.6375 -19.2452
RightUpLeg  -19.3695 -2.65563 -12.5844
RightLeg  14.9643 -1.48534 -0.295596
RightFoot  12.2779 0.072531 -0.296778
RightToes  -40.3057 -0.226366 -0.318253
172
root  4.64509 33.5994 -17.1445 1.5505 13.096 4.47202
LeftUpLeg  -7.08972 7.252 -7.49968
LeftLeg  17.3844 0.907114 0.219125
LeftFoot  -7.09133 -0.00184309 -0.0297543
LeftToes  -6.43201 8.556e-007 1.17171e-007
Spine  1.76139 0.134404 -4.01738
Spine1  3.42695 0.101085 -7.29025
RightShoulder  -0.0288787 5.1478 2.93662
RightArm  -28.8699 -23.777 81.1142
RightForeArm  26.8023 33.5192 6.70581
RightHand  0.872002 -12.6759 -7.46493
LeftShoulder1  0.129506 -3.75441 -10.8188
LeftArm  -35.7022 12.0959 -54.0042
LeftForeArm  36.004 -5.58733 -0.985853
LeftHand  0.389567 9.30276 4.41217
HEad  -51.2965 23.6099 -19.4208
RightUpLeg  -19.2638 0.785645 -12.7338
RightLeg  15.4392 -0.681537 -0.141369
RightFoot  11.4361 0.0454737 -0.0765853
RightToes  -40.5733 -0.228191 -0.317532
173
root  4.64973 33.6513 -17.0172 1.17953 13.0587 4.36203
LeftUpLeg  -6.22443 6.84326 -7.32619
LeftLeg  16.7413 1.37298 0.316488
LeftFoot  -6.87397 -0.00582744 -0.0970379
LeftToes  -6.04723 8.556e-007 1.17171e-007
Spine  1.57932 0.572244 -4.05599
Spine1  3.06824 1.20919 -7.74454
RightShoulder  -0.0288027 4.83391 2.98693
RightArm  -26.9066 -25.9469 81.1596
RightForeArm  26.5673 35.2514 7.15934
RightHand  0.818857 -12.6336 -7.01352
LeftShoulder1  0.0646296 -2.48045 -10.48
LeftArm  -32.35 18.8676 -53.76
LeftForeArm  36.1474 -6.74959 -1.19182
LeftHand  0.253474 8.30342 3.11833
HEad  -51.4556 22.5637 -19.288
RightUpLeg  -18.8844 3.13056 -12.7952
RightLeg  15.6962 -0.257444 -0.0544208
RightFoot  11.0454 0.0346396 0.0192917
RightToes  -40.6268 -0.23035 -0.317214
174
root  4.65237 33.7059 -16.8513 0.927537 13.4829 4.31153
LeftUpLeg  -5.28344 6.54169 -7.15818
LeftLeg  15.8756 1.27754 0.27419
LeftFoot  -6.55464 -0.00559872 -0.0977819
LeftToes  -6.05624 8.556e-007 1.17171e-007
Spine  1.48128 0.844608 -4.11756
Spine1  2.87144 1.87782 -8.11799
RightShoulder  -0.0286568 4.50135 3.00435
RightArm  -25.1621 -28.3337 81.2377
RightForeArm  26.5404 37.0544 7.65318
RightHand  0.769629 -12.4811 -6.65597
LeftShoulder1  0.0215257 -1.39147 -9.7227
LeftArm  -26.4659 25.5668 -53.5976
LeftForeArm  34.6928 -8.72889 -1.54669
LeftHand  0.215317 7.2238 3.03721
HEad  -51.301 21.5031 -18.8356
RightUpLeg  -18.411 4.20253 -12.831
RightLeg  16.0001 -0.507717 -0.110574
RightFoot  10.7752 0.0365045 -0.040582
RightToes  -40.9559 -0.231961 -0.317233
